<?xml version="1.0" encoding="UTF-8" standalone="no"?>
<svg width="17px" height="18px" viewBox="0 0 17 18" version="1.1" xmlns="http://www.w3.org/2000/svg" xmlns:xlink="http://www.w3.org/1999/xlink">
    <!-- Generator: Sketch 40.2 (33826) - http://www.bohemiancoding.com/sketch -->
    <title>Shape</title>
    <desc>Created with Sketch.</desc>
    <defs></defs>
    <g id="Page-1" stroke="none" stroke-width="1" fill="none" fill-rule="evenodd">
        <g id="已审门诊处方详情（按钮）" transform="translate(-1093.000000, -175.000000)" fill="#94A2AE">
            <g id="Group-31" transform="translate(1093.000000, 174.000000)">
                <path d="M14.7922114,1 L3.52532218,1 C2.41840629,1 1.5127573,1.90564899 1.5127573,3.01256488 L1.5127573,3.41722054 L0.499245891,3.41722054 C0.224669997,3.41722054 0,3.64186976 0,3.91646643 L0,5.27671857 C0,5.55129446 0.224649221,5.77596446 0.499245891,5.77596446 L1.5127573,5.77596446 L1.5127573,8.40653832 L0.499245891,8.40653832 C0.224669997,8.40653832 0,8.63118754 0,8.90578421 L0,10.2660363 C0,10.5406122 0.224649221,10.7652822 0.499245891,10.7652822 L1.5127573,10.7652822 L1.5127573,13.3958561 L0.499245891,13.3958561 C0.224669997,13.3958561 0,13.6205053 0,13.895102 L0,15.2553541 C0,15.52993 0.224649221,15.7546 0.499245891,15.7546 L1.5127573,15.7546 L1.5127573,16.9874351 C1.5127573,18.094351 2.41840629,19 3.52532218,19 L14.7921907,19 C15.8991065,19 16.8047555,18.094351 16.8047555,16.9874351 L16.8047555,3.01256488 C16.8047763,1.90564899 15.8991065,1 14.7922114,1 L14.7922114,1 Z M6.48249966,6.25313862 C6.48266608,5.9012388 6.77070137,5.61345315 7.12262198,5.61359879 L8.52845302,5.61424366 L8.55137767,4.20859986 C8.55711925,3.85674165 8.84968953,3.57355342 9.20154774,3.57929498 L9.75298781,3.58828178 C10.104846,3.59402335 10.3880343,3.88659363 10.3822927,4.23845184 L10.3598465,5.61507577 L11.7366576,5.61569985 C12.0885575,5.61586626 12.3763431,5.90390155 12.3761975,6.25582217 L12.3759478,6.80734545 C12.3757814,7.15924528 12.0877461,7.44703093 11.7358255,7.44688529 L10.3299945,7.44624041 L10.3070698,8.85188421 C10.3013283,9.20374242 10.008758,9.48693065 9.65689976,9.48118909 L9.10545968,9.4722023 C8.75360148,9.46646072 8.47041325,9.17389044 8.4761548,8.82203223 L8.49860099,7.44540831 L7.12178986,7.44478423 C6.76989004,7.44461781 6.48210439,7.15658252 6.48225002,6.80466191 L6.48249966,6.25313862 L6.48249966,6.25313862 Z M14.5229611,15.9078333 C14.5229611,15.9593202 14.4808355,16.0014458 14.4293486,16.0014458 L3.88816424,16.0014458 C3.83667736,16.0014458 3.79455173,15.9593202 3.79455173,15.9078333 L3.79455173,15.1515483 C3.79455173,15.1000614 3.83667736,15.0579358 3.88816424,15.0579358 L14.4293486,15.0579358 C14.4808355,15.0579358 14.5229611,15.1000614 14.5229611,15.1515483 L14.5229611,15.9078333 L14.5229611,15.9078333 Z M14.5229611,12.8312063 C14.5229611,12.8960694 14.4698932,12.9491372 14.4050301,12.9491372 L7.33734826,12.9491372 C7.27248519,12.9491372 7.2194173,12.8960693 7.2194173,12.8312063 L7.2194173,12.1235789 C7.2194173,12.0587158 7.27248519,12.005648 7.33734826,12.005648 L14.4050301,12.005648 C14.4698932,12.005648 14.5229611,12.0587158 14.5229611,12.1235789 L14.5229611,12.8312063 L14.5229611,12.8312063 Z" id="Shape"></path>
            </g>
        </g>
    </g>
</svg>