<?xml version="1.0" encoding="UTF-8" standalone="no"?>
<svg width="70px" height="15px" viewBox="0 0 70 15" version="1.1" xmlns="http://www.w3.org/2000/svg" xmlns:xlink="http://www.w3.org/1999/xlink">
    <!-- Generator: Sketch 40.2 (33826) - http://www.bohemiancoding.com/sketch -->
    <title>Page 1</title>
    <desc>Created with Sketch.</desc>
    <defs>
        <linearGradient x1="83.7222789%" y1="73.6468002%" x2="39.2641237%" y2="50%" id="linearGradient-1">
            <stop stop-color="#9DC926" offset="0%"></stop>
            <stop stop-color="#0AA048" offset="100%"></stop>
        </linearGradient>
        <linearGradient x1="50%" y1="100%" x2="50%" y2="0%" id="linearGradient-2">
            <stop stop-color="#9DC926" offset="0%"></stop>
            <stop stop-color="#0AA048" offset="100%"></stop>
        </linearGradient>
    </defs>
    <g id="Page-1" stroke="none" stroke-width="1" fill="none" fill-rule="evenodd">
        <g id="审方系统－审方方案选择" transform="translate(-20.000000, -844.000000)">
            <g id="Page-1" transform="translate(20.000000, 844.000000)">
                <path d="M68.015409,8.70005 C68.0043692,8.286675 67.9118042,7.972425 67.7362582,7.7553 C67.560591,7.540175 67.2926014,7.43155 66.9321681,7.43155 C66.5625147,7.43155 66.2759636,7.5458 66.0670555,7.772425 C65.8599671,7.999175 65.7454437,8.30955 65.7232426,8.70005 L68.015409,8.70005 L68.015409,8.70005 Z M67.3868648,12.806425 C66.2389619,12.806425 65.3590485,12.524675 64.7471248,11.9588 C64.1353224,11.393175 63.8285113,10.58755 63.8285113,9.5418 C63.8285113,8.51905 64.1131213,7.70205 64.6842825,7.092425 C65.255565,6.48105 66.0522548,6.176425 67.078234,6.176425 C68.0098284,6.176425 68.710435,6.435425 69.1800537,6.95155 C69.6495511,7.469675 69.8842998,8.21055 69.8842998,9.1743 L69.8842998,9.87705 L65.7287019,9.87705 C65.7472634,10.166675 65.8064662,10.410425 65.90813,10.604675 C66.007974,10.800925 66.1428787,10.955175 66.3092045,11.0713 C66.4700711,11.18755 66.6604177,11.269425 66.8767262,11.318925 C67.0929133,11.3703 67.3296031,11.395175 67.5865529,11.395175 C67.8065009,11.395175 68.0246291,11.3703 68.2372981,11.318925 C68.4498458,11.269425 68.645773,11.2028 68.8214402,11.1208 C68.9766049,11.050425 69.120851,10.974175 69.2521161,10.8923 C69.385201,10.810425 69.4923241,10.73805 69.5755477,10.675175 L69.7752357,10.675175 L69.7752357,12.288425 C69.6199497,12.3513 69.4776447,12.4103 69.3501404,12.463675 C69.2225147,12.516925 69.0450277,12.572175 68.8214402,12.627425 C68.6161716,12.68455 68.4036239,12.728425 68.1854957,12.758925 C67.9673674,12.7913 67.7011976,12.806425 67.3868648,12.806425 L67.3868648,12.806425 Z M63.5475407,8.218175 L63.3903137,8.218175 C63.3182513,8.19155 63.212948,8.172425 63.0761023,8.159175 C62.9392565,8.1458 62.7877314,8.14005 62.6212842,8.14005 C62.4217175,8.14005 62.2146291,8.17055 61.9946811,8.22955 C61.7765529,8.288675 61.5640052,8.359175 61.3587366,8.44105 L61.3587366,12.6388 L59.4640052,12.6388 L59.4640052,6.37255 L61.3587366,6.37255 L61.3587366,7.269675 C61.445721,7.187675 61.565825,7.084925 61.7192912,6.96105 C61.872636,6.8353 62.0132426,6.7363 62.1389272,6.66205 C62.2756516,6.5763 62.4365182,6.503925 62.6176447,6.44105 C62.8007123,6.380175 62.9724974,6.349675 63.135305,6.349675 C63.1962062,6.349675 63.2664489,6.35155 63.3422721,6.355425 C63.4180953,6.359175 63.4865182,6.364925 63.5475407,6.37255 L63.5475407,8.218175 L63.5475407,8.218175 Z M56.175461,11.974175 C56.0461369,12.08655 55.9295511,12.187425 55.8260676,12.276925 C55.7225841,12.36455 55.5858596,12.454175 55.4120121,12.543675 C55.2420468,12.6293 55.0774194,12.69405 54.9165529,12.7398 C54.7558076,12.783675 54.530279,12.806425 54.2419081,12.806425 C53.7039879,12.806425 53.2565702,12.6198 52.9017175,12.248425 C52.5449237,11.87705 52.3675581,11.408425 52.3675581,10.8428 C52.3675581,10.37805 52.4580607,10.000925 52.6391872,9.715175 C52.8184939,9.42955 53.0792045,9.200925 53.4174367,9.035175 C53.7612496,8.8638 54.1716655,8.7438 54.6485633,8.677175 C55.125461,8.610425 55.6375407,8.55905 56.1866222,8.52105 L56.1866222,8.4868 C56.1866222,8.141925 56.0627574,7.901925 55.8150277,7.77055 C55.5672981,7.639175 55.195825,7.57255 54.7021854,7.57255 C54.4785979,7.57255 54.2160676,7.614425 53.9165355,7.698175 C53.6171248,7.781925 53.3231733,7.888675 53.0384419,8.018175 L52.8758769,8.018175 L52.8758769,6.5058 C53.0644038,6.450675 53.3675754,6.383925 53.7852704,6.3078 C54.2049064,6.23155 54.6283033,6.193425 55.0533986,6.193425 C56.1015789,6.193425 56.8650277,6.37255 57.3437452,6.73255 C57.8224627,7.09055 58.0610936,7.639175 58.0610936,8.376175 L58.0610936,12.6388 L56.175461,12.6388 L56.175461,11.974175 L56.175461,11.974175 Z M56.175461,11.004675 L56.175461,9.69805 C55.8538492,9.7323 55.5931386,9.760925 55.3953917,9.7838 C55.195825,9.80855 55.0017175,9.856175 54.8094298,9.926675 C54.643104,9.985675 54.5154783,10.07705 54.4230347,10.19705 C54.330591,10.31905 54.2844905,10.47905 54.2844905,10.6808 C54.2844905,10.974175 54.3620121,11.17605 54.5154783,11.28655 C54.6689445,11.395175 54.8944731,11.4503 55.1938839,11.4503 C55.3602097,11.4503 55.5304177,11.410425 55.7041438,11.3323 C55.87787,11.254175 56.0349757,11.14555 56.175461,11.004675 L56.175461,11.004675 Z M49.9588059,12.806425 C49.4560676,12.806425 48.9957903,12.741675 48.5799151,12.6103 C48.1620988,12.4808 47.8016655,12.2808 47.4929133,12.008425 C47.1897418,11.73605 46.9531733,11.395175 46.7849064,10.983675 C46.6148198,10.5743 46.5297764,10.08855 46.5297764,9.530425 C46.5297764,8.932425 46.6222201,8.421925 46.8052877,8.00105 C46.9900537,7.581925 47.2396031,7.2353 47.5539359,6.962925 C47.8569861,6.703925 48.2139012,6.51155 48.6223761,6.3858 C49.032792,6.26205 49.4597071,6.1993 49.903364,6.1993 C50.2398977,6.1993 50.5743692,6.239175 50.9109029,6.319175 C51.2473154,6.3993 51.5837279,6.5268 51.9239012,6.70205 L51.9239012,8.376175 L51.6798111,8.376175 C51.6041092,8.301925 51.5116655,8.22005 51.4006603,8.13055 C51.2915962,8.040925 51.1714922,7.959175 51.0421681,7.8848 C50.9035026,7.8068 50.7482166,7.74005 50.5761889,7.686675 C50.4024627,7.63155 50.2084766,7.604925 49.9958076,7.604925 C49.5115095,7.604925 49.1380953,7.778175 48.8719255,8.126675 C48.6075754,8.4753 48.4744905,8.941925 48.4744905,9.530425 C48.4744905,10.15905 48.6167955,10.629425 48.8995858,10.93805 C49.1824974,11.24655 49.5595511,11.4008 50.0290485,11.4008 C50.2675581,11.4008 50.4764662,11.3723 50.6575927,11.31705 C50.8368995,11.2618 50.9921854,11.193175 51.1216308,11.115175 C51.2491352,11.03705 51.3563795,10.95705 51.4468821,10.873175 C51.5375061,10.789425 51.615149,10.7133 51.6798111,10.64655 L51.9239012,10.64655 L51.9239012,12.3208 C51.8148371,12.368425 51.6909723,12.42555 51.5467262,12.488425 C51.4044211,12.551175 51.2602964,12.60455 51.1122894,12.64455 C50.9275234,12.69605 50.755617,12.735925 50.5947504,12.76455 C50.4338839,12.793175 50.2213362,12.806425 49.9588059,12.806425 L49.9588059,12.806425 Z M43.6867088,11.974175 C43.5573847,12.08655 43.4409203,12.187425 43.3374367,12.276925 C43.2338319,12.36455 43.0971075,12.454175 42.92326,12.543675 C42.7531733,12.6293 42.5886672,12.69405 42.427922,12.7398 C42.2670555,12.783675 42.0415269,12.806425 41.753156,12.806425 C41.2152357,12.806425 40.7679393,12.6198 40.4129653,12.248425 C40.0561716,11.87705 39.8788059,11.408425 39.8788059,10.8428 C39.8788059,10.37805 39.9693085,10.000925 40.1505563,9.715175 C40.3298631,9.42955 40.5904523,9.200925 40.9286846,9.035175 C41.2724974,8.8638 41.6829133,8.7438 42.1598111,8.677175 C42.6367088,8.610425 43.1487886,8.55905 43.69787,8.52105 L43.69787,8.4868 C43.69787,8.141925 43.5740052,7.901925 43.3262756,7.77055 C43.0785459,7.639175 42.7070728,7.57255 42.2134333,7.57255 C41.9898458,7.57255 41.7273154,7.614425 41.4277834,7.698175 C41.1283726,7.781925 40.8345425,7.888675 40.5498111,8.018175 L40.3871248,8.018175 L40.3871248,6.5058 C40.5756516,6.450675 40.8788232,6.383925 41.2965182,6.3078 C41.7161542,6.23155 42.1395511,6.193425 42.5646464,6.193425 C43.6128267,6.193425 44.3762756,6.37255 44.8551144,6.73255 C45.3338319,7.09055 45.5722201,7.639175 45.5722201,8.376175 L45.5722201,12.6388 L43.6867088,12.6388 L43.6867088,11.974175 L43.6867088,11.974175 Z M43.6867088,11.004675 L43.6867088,9.69805 C43.3650971,9.7323 43.1045078,9.760925 42.9066395,9.7838 C42.7070728,9.80855 42.5129653,9.856175 42.3206776,9.926675 C42.1543518,9.985675 42.0267262,10.07705 41.9342825,10.19705 C41.8418388,10.31905 41.7957383,10.47905 41.7957383,10.6808 C41.7957383,10.974175 41.87326,11.17605 42.0267262,11.28655 C42.1801924,11.395175 42.405721,11.4503 42.7051317,11.4503 C42.8715789,11.4503 43.0416655,11.410425 43.2153917,11.3323 C43.3891179,11.254175 43.5463449,11.14555 43.6867088,11.004675 L43.6867088,11.004675 Z M37.0265182,12.6388 L37.0265182,9.50955 C37.0265182,9.200925 37.0209376,8.94005 37.0097764,8.728675 C36.9987366,8.5153 36.9673154,8.341925 36.9117522,8.208675 C36.8582513,8.0753 36.7750277,7.978175 36.660383,7.9153 C36.5476794,7.854425 36.3868128,7.8238 36.1816655,7.8238 C36.0375407,7.8238 35.8932946,7.8563 35.7528094,7.92105 C35.6122028,7.9858 35.4588579,8.079175 35.2925321,8.197175 L35.2925321,12.6388 L33.3866395,12.6388 L33.3866395,9.50955 C33.3866395,9.2048 33.3811802,8.9438 33.3681993,8.730425 C33.3552184,8.517175 33.3219775,8.341925 33.2683553,8.208675 C33.2129133,8.0753 33.1296898,7.978175 33.0150451,7.9153 C32.9023414,7.854425 32.7434159,7.8238 32.5419081,7.8238 C32.3866222,7.8238 32.2350971,7.861925 32.0870901,7.9363 C31.9373847,8.01055 31.79326,8.098175 31.6526534,8.197175 L31.6526534,12.6388 L29.757922,12.6388 L29.757922,6.37255 L31.6526534,6.37255 L31.6526534,7.063925 C31.9632253,6.793425 32.255357,6.580175 32.530747,6.4278 C32.8044385,6.275425 33.1130693,6.1993 33.4568821,6.1993 C33.8284766,6.1993 34.155669,6.29055 34.4366395,6.473425 C34.7176101,6.654425 34.9339185,6.9268 35.0818042,7.2868 C35.4458769,6.938175 35.7896898,6.669675 36.1132426,6.48105 C36.4367955,6.29255 36.7639879,6.1993 37.0966395,6.1993 C37.3776101,6.1993 37.6309203,6.244925 37.8546291,6.3383 C38.0782166,6.43155 38.2686846,6.570675 38.4239705,6.7573 C38.5922374,6.9573 38.7197418,7.197175 38.8046638,7.473425 C38.8898284,7.75155 38.9322894,8.113425 38.9322894,8.55905 L38.9322894,12.6388 L37.0265182,12.6388 L37.0265182,12.6388 Z M29.0314749,8.218175 L28.8743692,8.218175 C28.8023068,8.19155 28.6968821,8.172425 28.5601577,8.159175 C28.423312,8.1458 28.2716655,8.14005 28.1053397,8.14005 C27.905773,8.14005 27.6986846,8.17055 27.4787366,8.22955 C27.2606083,8.288675 27.0479393,8.359175 26.842792,8.44105 L26.842792,12.6388 L24.9480607,12.6388 L24.9480607,6.37255 L26.842792,6.37255 L26.842792,7.269675 C26.9296551,7.187675 27.0498804,7.084925 27.2033466,6.96105 C27.3566915,6.8353 27.4971768,6.7363 27.6229827,6.66205 C27.7597071,6.5763 27.9204523,6.503925 28.1017002,6.44105 C28.2846464,6.380175 28.4565529,6.349675 28.6192392,6.349675 C28.6802617,6.349675 28.7505043,6.35155 28.8263276,6.355425 C28.9020295,6.359175 28.9704523,6.364925 29.0314749,6.37255 L29.0314749,8.218175 L29.0314749,8.218175 Z M21.6595165,11.974175 C21.5300711,12.08655 21.4136066,12.187425 21.3101231,12.276925 C21.2066395,12.36455 21.0697938,12.454175 20.8960676,12.543675 C20.7259809,12.6293 20.5614749,12.69405 20.4006083,12.7398 C20.2398631,12.783675 20.0143345,12.806425 19.7258423,12.806425 C19.1880433,12.806425 18.7406256,12.6198 18.385773,12.248425 C18.0289792,11.87705 17.8514922,11.408425 17.8514922,10.8428 C17.8514922,10.37805 17.9421161,10.000925 18.1232426,9.715175 C18.3025494,9.42955 18.5631386,9.200925 18.9014922,9.035175 C19.245305,8.8638 19.655721,8.7438 20.1326187,8.677175 C20.6095165,8.610425 21.1215962,8.55905 21.6706776,8.52105 L21.6706776,8.4868 C21.6706776,8.141925 21.5466915,7.901925 21.2990832,7.77055 C21.0513536,7.639175 20.6797591,7.57255 20.1862409,7.57255 C19.9625321,7.57255 19.7000017,7.614425 19.400591,7.698175 C19.1010589,7.781925 18.8072288,7.888675 18.5224974,8.018175 L18.3599324,8.018175 L18.3599324,6.5058 C18.5484593,6.450675 18.8516308,6.383925 19.2693258,6.3078 C19.6889619,6.23155 20.1122374,6.193425 20.5374541,6.193425 C21.585513,6.193425 22.3489619,6.37255 22.8278007,6.73255 C23.3065182,7.09055 23.5450277,7.639175 23.5450277,8.376175 L23.5450277,12.6388 L21.6595165,12.6388 L21.6595165,11.974175 L21.6595165,11.974175 Z M21.6595165,11.004675 L21.6595165,9.69805 C21.3379047,9.7323 21.0771941,9.760925 20.8794471,9.7838 C20.6797591,9.80855 20.4856516,9.856175 20.2934853,9.926675 C20.1270381,9.985675 19.9995338,10.07705 19.9070901,10.19705 C19.8146464,10.31905 19.7684246,10.47905 19.7684246,10.6808 C19.7684246,10.974175 19.8460676,11.17605 19.9995338,11.28655 C20.153,11.395175 20.3785286,11.4503 20.6779393,11.4503 C20.8442652,11.4503 21.0143518,11.410425 21.1881993,11.3323 C21.3619255,11.254175 21.5190312,11.14555 21.6595165,11.004675 L21.6595165,11.004675 Z M16.9050971,12.6388 L14.9992045,12.6388 L14.9992045,9.530425 C14.9992045,9.27905 14.9899844,9.025675 14.9696031,8.7743 C14.9493432,8.5248 14.9123414,8.338175 14.8587192,8.22005 C14.7940572,8.079175 14.6997938,7.978175 14.5759289,7.9153 C14.4538839,7.854425 14.2893778,7.8238 14.0842305,7.8238 C13.9289445,7.8238 13.7718388,7.854425 13.612792,7.913425 C13.4538666,7.972425 13.2837799,8.067675 13.1026534,8.197175 L13.1026534,12.6388 L11.207922,12.6388 L11.207922,3.95555 L13.1026534,3.95555 L13.1026534,7.063925 C13.4132253,6.793425 13.7162756,6.580175 14.010227,6.4278 C14.3041785,6.275425 14.6295511,6.1993 14.9881646,6.1993 C15.6091872,6.1993 16.0842652,6.401175 16.4114575,6.804925 C16.740591,7.208675 16.9050971,7.793425 16.9050971,8.55905 L16.9050971,12.6388 L16.9050971,12.6388 Z M8.25020971,9.45805 C8.25020971,8.848675 8.15958579,8.4048 7.97663951,8.13055 C7.795513,7.854425 7.51078163,7.717175 7.1245078,7.717175 C6.95442114,7.717175 6.78615425,7.7458 6.61800867,7.80105 C6.44974177,7.8563 6.2852357,7.94005 6.12254939,8.052425 L6.12254939,11.204675 C6.22421317,11.248425 6.33509705,11.2808 6.45532236,11.29805 C6.5772461,11.31705 6.71955113,11.32655 6.88599827,11.32655 C7.34809532,11.32655 7.69008839,11.170425 7.91379723,10.859925 C8.13750607,10.549425 8.25020971,10.0828 8.25020971,9.45805 L8.25020971,9.45805 Z M10.1893432,9.41805 C10.1893432,10.419925 9.94343328,11.22555 9.44991508,11.8408 C8.95821664,12.454175 8.35005373,12.7608 7.6272461,12.7608 C7.32407452,12.7608 7.06166551,12.724675 6.83795667,12.654175 C6.61424783,12.583675 6.3757383,12.47505 6.12254939,12.32455 L6.12254939,14.9378 L4.22781802,14.9378 L4.22781802,6.37255 L6.12254939,6.37255 L6.12254939,7.0258 C6.39988042,6.780175 6.68449047,6.580175 6.97286135,6.4278 C7.26123224,6.275425 7.59582496,6.1993 7.97481976,6.1993 C8.67906586,6.1993 9.22438648,6.4868 9.61078163,7.063925 C9.99705546,7.64105 10.1893432,8.4258 10.1893432,9.41805 L10.1893432,9.41805 Z" id="Fill-1" fill="#FFFFFF"></path>
                <path d="M13.7042409,5.764625 C17.7195962,-2.755625 31.8714853,3.371875 40.1813466,0 C39.0768752,7.867125 27.2336516,4.90075 18.0666846,5.584 C19.0474125,2.569375 30.8761993,5.0305 33.7174471,2.562875 C28.3404281,3.646 17.8451594,1.143 13.7042409,5.764625" id="Fill-2" fill="url(#linearGradient-1)"></path>
                <path d="M1.55033622,2.7837875 C2.40307452,2.7837875 3.10064818,3.5025375 3.10064818,4.3811625 L3.10064818,5.7714125 L1.83761525,5.7714125 L1.83761525,5.1647875 L1.26305719,5.1647875 L1.26305719,5.7714125 L2.42634324e-05,5.7714125 L2.42634324e-05,4.3811625 C2.42634324e-05,3.5025375 0.69759792,2.7837875 1.55033622,2.7837875" id="Fill-3" fill="url(#linearGradient-2)"></path>
                <path d="M3.10062392,6.3634125 L3.10062392,11.0854125 C3.10062392,11.9640375 2.40305026,12.6827875 1.55031196,12.6827875 C0.697573657,12.6827875 0,11.9640375 0,11.0854125 L0,6.3634125 L1.26303293,6.3634125 L1.26303293,6.9817875 L1.83771231,6.9817875 L1.83771231,6.3634125 L3.10062392,6.3634125 L3.10062392,6.3634125 Z" id="Fill-4" fill="#FFFFFF"></path>
            </g>
        </g>
    </g>
</svg>