<?xml version="1.0" encoding="UTF-8" standalone="no"?>
<svg width="12px" height="16px" viewBox="0 0 12 16" version="1.1" xmlns="http://www.w3.org/2000/svg" xmlns:xlink="http://www.w3.org/1999/xlink">
    <!-- Generator: Sketch 40.2 (33826) - http://www.bohemiancoding.com/sketch -->
    <title>审核(4)</title>
    <desc>Created with Sketch.</desc>
    <defs></defs>
    <g id="Page-1" stroke="none" stroke-width="1" fill="none" fill-rule="evenodd">
        <g id="用药警示信息" transform="translate(-15.000000, -210.000000)" fill="#4EB7E0">
            <g id="Group-18" transform="translate(0.000000, 93.000000)">
                <g id="Group-21">
                    <g id="审核(4)" transform="translate(15.000000, 117.000000)">
                        <path d="M11.0711642,2.449 C10.8485888,2.223475 10.5523064,2.099165 10.2372719,2.099165 L8.55264869,2.099165 L8.55142406,2.0778525 C8.53871859,1.61572 8.15763095,1.239845 7.7015351,1.239845 L7.04291708,1.239845 L7.0413863,1.2202375 C6.96737309,0.53103 6.39455528,0.0113925 5.70976093,0.0113925 C5.02527273,0.0113925 4.45253145,0.530875 4.37828863,1.2202375 L4.37622208,1.239845 L3.71829291,1.239845 C3.26235014,1.239845 2.88103288,1.615875 2.86817433,2.0778525 L2.86756202,2.09932 L1.18332151,2.09932 C0.533046239,2.09932 0.00400872968,2.6349225 0.00400872968,3.29344 L0.00400872968,14.29441 C0.00400872968,14.953005 0.533046239,15.488685 1.18332151,15.488685 L1.18332151,15.48853 L10.2378077,15.48853 C10.8880829,15.48853 11.4171204,14.95285 11.4171204,14.294255 L11.4171204,3.2935175 C11.4172735,2.9743725 11.2938927,2.674525 11.0711642,2.449 L11.0711642,2.449 Z M5.71014362,0.818555 C6.00956416,0.818555 6.25341738,1.065315 6.25341738,1.3684175 C6.25341738,1.6715975 6.00956416,1.9183575 5.71014362,1.9183575 C5.41072309,1.9183575 5.16702294,1.6715975 5.16702294,1.3684175 C5.16702294,1.0652375 5.41072309,0.818555 5.71014362,0.818555 L5.71014362,0.818555 Z M3.66440946,2.1018775 C3.66440946,2.07204 3.68920809,2.04693 3.71852252,2.04693 L4.55134329,2.04693 L4.55761949,2.0577025 C4.79917654,2.469615 5.24034729,2.72552 5.71006708,2.72552 C6.18009303,2.72552 6.62149339,2.469615 6.86297391,2.0577025 L6.86925011,2.04693 L7.70237703,2.04693 C7.73169146,2.04693 7.7564901,2.07204 7.7564901,2.1018775 L7.7564901,3.01847 C7.7564901,3.048695 7.73230378,3.07303 7.70237703,3.07303 L3.7186756,3.07303 C3.68859578,3.07303 3.66456254,3.04854 3.66456254,3.01847 L3.66456254,2.1018775 L3.66440946,2.1018775 L3.66440946,2.1018775 Z M10.3973915,14.2944875 C10.3973915,14.3842325 10.3255979,14.4572375 10.2369657,14.4572375 L1.18347459,14.4572375 C1.09484244,14.4572375 1.02304886,14.38431 1.02304886,14.2944875 L1.02304886,3.29344 C1.02304886,3.203695 1.09484244,3.1309225 1.18347459,3.1309225 L2.87613438,3.1309225 L2.87820094,3.1495225 C2.94142214,3.566085 3.30230349,3.88027 3.71859906,3.88027 L7.70222395,3.88027 C8.1176776,3.88027 8.48001318,3.56624 8.54254554,3.1496775 L8.54491825,3.1310775 L10.2368127,3.1310775 C10.3254448,3.1310775 10.3972384,3.20385 10.3972384,3.293595 L10.3972384,14.2944875 L10.3973915,14.2944875 L10.3973915,14.2944875 Z" id="Shape"></path>
                        <path d="M8.84762996,5.9176675 L5.10005132,5.9176675 C4.97942587,5.9176675 4.88137942,6.032755 4.88137942,6.174425 L4.88137942,6.5409225 C4.88137942,6.6825925 4.97942587,6.797835 5.10005132,6.797835 L8.84762996,6.797835 C8.96794925,6.797835 9.06607224,6.6827475 9.06645494,6.5409225 L9.06645494,6.174425 C9.06653147,6.03291 8.96840849,5.9176675 8.84762996,5.9176675 L8.84762996,5.9176675 Z" id="Shape"></path>
                        <path d="M8.84762996,8.7076675 L5.10005132,8.7076675 C4.97942587,8.7076675 4.88137942,8.822755 4.88137942,8.964425 L4.88137942,9.3309225 C4.88137942,9.4725925 4.97942587,9.587835 5.10005132,9.587835 L8.84762996,9.587835 C8.96794925,9.587835 9.06607224,9.4727475 9.06645494,9.3309225 L9.06645494,8.964425 C9.06653147,8.82291 8.96840849,8.7076675 8.84762996,8.7076675 L8.84762996,8.7076675 Z" id="Shape"></path>
                        <path d="M2.68562883,6.37081 C2.68937924,6.374685 2.63656734,6.4229675 2.61146255,6.4471475 C2.52581542,6.529995 2.44047444,6.61354 2.36110351,6.702355 C2.24522348,6.8321675 2.29275419,7.0181675 2.45210837,7.0707125 C2.54495017,7.1014025 2.62102993,7.0679225 2.68639422,7.0012725 C2.79194149,6.8938575 2.89733568,6.7861325 3.01007762,6.6712775 C3.12611073,6.781405 3.23517879,6.8850225 3.34401724,6.9888725 C3.41160117,7.053275 3.48722169,7.0855925 3.57975733,7.05188 C3.74102499,6.993135 3.78005987,6.8036475 3.65690864,6.6751525 C3.55227983,6.5661875 3.44612025,6.45885 3.33598064,6.3459325 C3.3394249,6.3394225 3.3411853,6.3327575 3.3457011,6.328185 C3.4422933,6.22883 3.53942128,6.129785 3.63555426,6.03012 C3.69387697,5.9699025 3.73344763,5.9007725 3.71033285,5.8125775 C3.6623429,5.629755 3.47398045,5.57411 3.33643988,5.7045425 C3.22300909,5.8124225 3.11547181,5.926735 2.98007433,6.06391 C2.87016434,5.9447925 2.77165866,5.829705 2.66419792,5.723995 C2.56224798,5.623865 2.4366475,5.6250275 2.3469438,5.7141525 C2.25678087,5.80382 2.25991896,5.9429325 2.35788887,6.042985 C2.45945611,6.147765 2.55696679,6.24278 2.68562883,6.37081 L2.68562883,6.37081 Z" id="Shape"></path>
                        <path d="M3.97814278,8.3401625 C3.97125427,8.3401625 3.96467192,8.340705 3.96061535,8.341325 C3.93352055,8.344425 3.91293156,8.3539575 3.89571029,8.3629475 L3.84282185,8.39139 C3.80799661,8.4103775 3.7704925,8.4316125 3.73206993,8.457265 C3.47941471,8.62699 3.23992421,8.819035 3.00655683,9.00612 L2.9921675,9.017435 C2.93637057,9.062385 2.87957864,9.108265 2.82500634,9.153215 L2.81666359,9.160035 L2.78091988,9.1298875 C2.71379518,9.0728475 2.6378685,9.00829 2.56041104,8.9469875 C2.51104339,8.908005 2.45547609,8.881345 2.40702691,8.8603425 C2.34411185,8.8338375 2.2735429,8.84926 2.23557956,8.8970775 C2.2071836,8.9327275 2.19746315,8.980855 2.20848476,9.0327025 C2.2158325,9.06533 2.22417525,9.10036 2.23841151,9.135545 C2.31273087,9.3186775 2.41567581,9.50274 2.56293683,9.7148575 C2.62003492,9.79724 2.70751899,9.8442825 2.80273349,9.8442825 C2.88103288,9.8442825 2.95672994,9.811965 3.01528227,9.7534525 C3.06120567,9.7081925 3.10812407,9.66022 3.15519555,9.611085 C3.31707551,9.44167 3.48898209,9.26032 3.65629632,9.0695925 C3.69724468,9.0230925 3.73765727,8.97636 3.77829948,8.9294725 L3.82552403,8.874835 C3.85514462,8.84058 3.8845356,8.8064025 3.91461542,8.7721475 L3.92257548,8.762925 C4.0590445,8.6107925 4.1149945,8.5150025 4.10971331,8.442695 C4.10833561,8.418515 4.09402282,8.3401625 3.97814278,8.3401625 L3.97814278,8.3401625 Z" id="Shape"></path>
                        <path d="M3.97814278,11.1301625 C3.97125427,11.1301625 3.96467192,11.130705 3.96061535,11.131325 C3.93352055,11.134425 3.91293156,11.1439575 3.89571029,11.1529475 L3.84282185,11.18139 C3.80799661,11.2003775 3.7704925,11.2216125 3.73206993,11.247265 C3.47941471,11.4170675 3.23992421,11.609035 3.00655683,11.79612 L2.9921675,11.807435 C2.93637057,11.852385 2.87957864,11.898265 2.82500634,11.943215 L2.81666359,11.950035 L2.78091988,11.9198875 C2.71379518,11.8628475 2.6378685,11.79829 2.56041104,11.7369875 C2.51104339,11.698005 2.45547609,11.671345 2.40702691,11.6503425 C2.34411185,11.623915 2.2735429,11.63926 2.23557956,11.6870775 C2.2071836,11.7227275 2.19746315,11.770855 2.20848476,11.8227025 C2.2158325,11.85533 2.22417525,11.89036 2.23841151,11.925545 C2.31273087,12.1086775 2.41567581,12.29274 2.56293683,12.50478 C2.62003492,12.5871625 2.70751899,12.6342825 2.80273349,12.6342825 C2.8808798,12.6342825 2.95657686,12.601965 3.01528227,12.5434525 C3.06120567,12.4981925 3.10812407,12.45022 3.15519555,12.401085 C3.31676936,12.23198 3.48852285,12.0508625 3.65629632,11.8595925 C3.69724468,11.8130925 3.73773381,11.766205 3.77829948,11.7193175 L3.82537096,11.664835 C3.85514462,11.63058 3.8845356,11.596325 3.91461542,11.56207 L3.92257548,11.5528475 C4.0590445,11.400715 4.1149945,11.304925 4.10971331,11.2326175 C4.10833561,11.208515 4.09402282,11.1301625 3.97814278,11.1301625 L3.97814278,11.1301625 Z" id="Shape"></path>
                        <path d="M8.84762996,11.4976675 L5.10005132,11.4976675 C4.97942587,11.4976675 4.88137942,11.612755 4.88137942,11.754425 L4.88137942,12.1209225 C4.88137942,12.2625925 4.97942587,12.377835 5.10005132,12.377835 L8.84762996,12.377835 C8.96794925,12.377835 9.06607224,12.2627475 9.06645494,12.1209225 L9.06645494,11.754425 C9.06653147,11.61291 8.96840849,11.4976675 8.84762996,11.4976675 L8.84762996,11.4976675 Z" id="Shape"></path>
                    </g>
                </g>
            </g>
        </g>
    </g>
</svg>