<?xml version="1.0" encoding="UTF-8" standalone="no"?>
<svg width="13px" height="16px" viewBox="0 0 13 16" version="1.1" xmlns="http://www.w3.org/2000/svg" xmlns:xlink="http://www.w3.org/1999/xlink">
    <!-- Generator: Sketch 42 (36781) - http://www.bohemiancoding.com/sketch -->
    <title>Shape</title>
    <desc>Created with Sketch.</desc>
    <defs></defs>
    <g id="Page-1" stroke="none" stroke-width="1" fill="none" fill-rule="evenodd">
        <g id="筛选结果" transform="translate(-1142.000000, -18.000000)" fill-rule="nonzero" fill="#fff">
            <path d="M1150.53331,31.8654375 C1150.5312,33.0446875 1149.58508,34 1148.39998,34 C1147.22309,34 1146.26878,33.0486406 1146.26666,31.8654375 L1150.53331,31.8654375 L1150.53331,31.8654375 Z M1149.8222,19.4222188 C1149.8222,18.6383281 1149.18545,18 1148.39998,18 C1147.61613,18 1146.97777,18.63675 1146.97777,19.4222188 C1146.97777,19.5022344 1146.98441,19.5807344 1146.99716,19.6572031 C1145.03327,20.3416875 1143.42222,22.4437813 1143.42222,24.9308438 L1143.42222,26.8889063 C1143.42222,26.8889063 1143.42222,29.7087969 1142.72942,29.7333438 C1142.31641,29.7333438 1142,30.0517031 1142,30.4444531 C1142,30.8399219 1142.31833,31.1555625 1142.711,31.1555625 L1154.08898,31.1555625 C1154.48358,31.1555625 1154.79998,30.8372031 1154.79998,30.4444531 C1154.79998,30.0489844 1154.48166,29.7333438 1154.08898,29.7333438 C1153.37777,29.7333438 1153.37777,26.9086719 1153.37777,26.9086719 L1153.37777,24.931125 C1153.37777,22.4408906 1151.87134,20.337875 1149.80316,19.6554219 C1149.8157,19.5795313 1149.82222,19.5016563 1149.82222,19.42225 L1149.8222,19.4222188 Z" id="Shape"></path>
        </g>
    </g>
</svg>