<?xml version="1.0" encoding="UTF-8" standalone="no"?>
<svg width="881px" height="618px" viewBox="0 0 881 618" version="1.1" xmlns="http://www.w3.org/2000/svg" xmlns:xlink="http://www.w3.org/1999/xlink">
    <!-- Generator: Sketch 40.2 (33826) - http://www.bohemiancoding.com/sketch -->
    <title>Shape</title>
    <desc>Created with Sketch.</desc>
    <defs></defs>
    <g id="Page-1" stroke="none" stroke-width="1" fill="none" fill-rule="evenodd">
        <path d="M834.755835,0.85561 C821.929947,0.85561 810.344749,6.145318 802.044404,14.653722 L802.005093,14.614411 L310.806292,506.35206 L80.590382,275.207071 L80.521348,275.274187 C72.149093,265.873138 59.95985,259.947745 46.381303,259.947745 C21.13606,259.947745 0.670442,280.413363 0.670442,305.658606 C0.670442,319.170996 6.537348,331.309422 15.858817,339.677842 L15.808001,339.728658 L278.322098,603.296478 C278.381544,603.356882 278.435237,603.420163 278.495641,603.479609 C286.782562,611.865287 298.290098,617.061991 311.010517,617.061991 C323.74436,617.061991 335.263401,611.853781 343.551281,603.455639 L866.090427,79.830171 C874.93633,71.494351 880.466697,59.679999 880.466697,46.566471 C880.467655,21.321228 860.001079,0.85561 834.755835,0.85561 L834.755835,0.85561 Z" id="Shape" fill="#FFFFFF"></path>
    </g>
</svg>