<?xml version="1.0" encoding="UTF-8" standalone="no"?>
<svg width="17px" height="18px" viewBox="0 0 17 18" version="1.1" xmlns="http://www.w3.org/2000/svg" xmlns:xlink="http://www.w3.org/1999/xlink">
    <!-- Generator: Sketch 40.2 (33826) - http://www.bohemiancoding.com/sketch -->
    <title>检验信息-press(3)</title>
    <desc>Created with Sketch.</desc>
    <defs></defs>
    <g id="Page-1" stroke="none" stroke-width="1" fill="none" fill-rule="evenodd">
        <g id="住院审核－详情2（住院信息汇总）" transform="translate(-1224.000000, -189.000000)" fill="#94A2AE">
            <g id="Group-2" transform="translate(1224.500000, 188.000000)">
                <g id="检验信息-press(3)" transform="translate(0.000000, 1.000000)">
                    <path d="M15.8969441,15.9944876 L15.8917877,15.9866737 C15.841513,15.8985505 14.6452321,13.810506 13.4455137,11.7367869 C11.9278183,9.11262289 11.088617,7.69223171 10.8810726,7.39443577 L10.8686113,7.37750568 L10.8686113,0.718770851 L12.049423,0.718770851 C12.2694287,0.718770851 12.4477536,0.557717931 12.4477536,0.360200218 C12.4477536,0.161814291 12.2694287,0.000761370564 12.049423,0.000761370564 L3.78889745,0.000761387547 C3.56889178,0.000761387547 3.39056686,0.162248406 3.39056686,0.360200235 C3.39056686,0.558152063 3.56932148,0.718770868 3.78889745,0.718770868 L4.96927946,0.718770868 L4.96927946,7.38141263 L4.95853699,7.39790861 C4.76646173,7.69353404 3.96808176,9.11132058 2.51655994,11.7315777 C1.34391251,13.8504436 0.175991759,15.9766893 0.166538397,15.9936194 C-0.0246774768,16.3452444 -0.0453030036,16.682978 0.108529096,16.9447432 C0.26365029,17.2099813 0.572173874,17.3567088 0.976949933,17.3567088 L0.993278471,17.3567088 L1.70442962,17.3567088 L1.95709238,17.3567088 C2.21018487,17.357577 2.41601049,17.1565864 2.41601049,16.9095807 L2.41601049,16.8978599 C2.41601049,16.6508542 2.21018487,16.4507319 1.95709241,16.4507319 L1.70399994,16.4507319 L0.992848778,16.4507319 L0.871673788,16.4507319 L0.928393995,16.351756 C1.50461978,15.3498419 4.73810163,9.53370465 5.71566589,7.77514576 L5.73414292,7.74171969 L10.1076151,7.74171968 L10.1269515,7.77384343 C10.8656034,9.03752275 14.5794882,15.3902136 15.1342291,16.3500195 L15.187082,16.4411815 L15.083095,16.4485613 C15.0641882,16.4498636 15.0448518,16.4507318 15.0237966,16.4507318 L7.80142281,16.4507319 L6.43197343,16.4507319 L5.38522768,16.4507319 L5.13170552,16.4507319 L4.42184347,16.4507319 C4.1683213,16.4507319 3.96292539,16.6508542 3.96292539,16.8978599 L3.96292539,16.9095807 C3.96292539,17.1561523 4.1683213,17.3571429 4.42184347,17.3571429 L5.13170552,17.3571429 L5.38522768,17.3571429 L6.43197343,17.3571429 L7.80142281,17.3571429 L15.0856732,17.3571429 C15.4895899,17.3571429 15.7985431,17.2108495 15.954094,16.9460455 C16.1070667,16.6834121 16.0864412,16.3452444 15.8969441,15.9944876 L15.8969441,15.9944876 Z M9.97183034,6.65515515 L5.86649009,6.65515515 L5.86649009,0.906738281 L9.97226003,0.906738281 L9.97226005,6.65515515 L9.97183034,6.65515515 Z" id="Shape"></path>
                    <path d="M14.6877723,14.9252873 L14.6877723,13.9945664 L14.2744022,13.9945664 L14.2744022,13.3221379 L13.9757617,13.3221379 L13.9757617,12.6991974 L13.6552066,12.6991974 L13.6552066,12.2086589 L13.2418365,12.2086589 L13.2418365,11.6525706 L12.897648,11.6525706 L12.897648,10.9336929 L12.3931818,10.9336929 L12.3931818,10.1462266 L12.0713376,10.1462266 L12.0713376,9.42734892 L11.2678013,9.42734894 L11.2678013,8.58605368 L10.7401314,8.58605368 L10.7401314,7.5481089 L5.16350321,7.5481089 L5.16350321,8.58605368 L4.54387786,8.58605368 L4.54387786,9.42734894 L4.08152219,9.42734894 L4.08152219,10.1462266 L3.51088248,10.1462266 L3.51088248,10.9336929 L3.09751245,10.9336929 L3.09751245,11.6525706 L2.73054985,11.6525706 L2.73054985,12.2086589 L2.34038355,12.2086589 L2.34038355,12.6991974 L2.04217272,12.6991974 L2.04217272,13.3221379 L1.67478044,13.322138 L1.67478044,13.9945664 L1.30781785,13.9945664 L1.30781785,14.9252873 L0.894447809,14.9252873 L0.894447809,15.2968811 L0.871673788,15.2968811 L0.871673788,17.3571429 L15.1462607,17.3571429 L15.1462607,16.9855491 L15.1698941,16.9855491 L15.1698941,14.9252873 L14.6877723,14.9252873 L14.6877723,14.9252873 Z M12.6144766,13.7783822 C12.5165053,13.8300407 12.4103698,13.8222268 12.3781424,13.7597157 C12.377283,13.7571111 12.3759939,13.7536382 12.3747048,13.7505995 C11.5556993,12.3493089 10.662356,10.8208256 10.0380039,9.75249351 C10.0380039,9.75205941 10.0371445,9.75119119 10.0371445,9.75075708 C10.0367148,9.74988886 10.0367148,9.74902065 10.0358554,9.74902065 C10.0358554,9.74815244 10.034996,9.74728422 10.034996,9.74685012 L10.034996,9.74685012 C10.0040577,9.68650955 10.052184,9.593177 10.1467177,9.53587516 C10.2395325,9.48030973 10.3413711,9.47944151 10.3821925,9.53240232 L10.3821925,9.53196822 C10.814899,10.2612644 11.4366728,11.3282942 12.2827493,12.7903595 C12.4249795,13.0356287 12.5727958,13.2913165 12.7244795,13.5548182 L12.7240498,13.5556864 C12.7283467,13.5604616 12.7317843,13.5648026 12.7347922,13.570446 C12.7670196,13.6333912 12.7128776,13.7258555 12.6144766,13.7783822 L12.6144766,13.7783822 Z" id="Shape"></path>
                </g>
            </g>
        </g>
    </g>
</svg>