<?xml version="1.0" encoding="UTF-8" standalone="no"?>
<svg width="14px" height="13px" viewBox="0 0 14 13" version="1.1" xmlns="http://www.w3.org/2000/svg" xmlns:xlink="http://www.w3.org/1999/xlink">
    <!-- Generator: Sketch 42 (36781) - http://www.bohemiancoding.com/sketch -->
    <title>Shape</title>
    <desc>Created with Sketch.</desc>
    <defs></defs>
    <g id="Page-1" stroke="none" stroke-width="1" fill="none" fill-rule="evenodd">
        <g id="（查看规则）规则点评－规则确认待查（用药信息）" transform="translate(-196.000000, -588.000000)" fill-rule="nonzero" fill="#FF0000">
            <path d="M209.036397,598.242462 L204.161487,589.14264 C203.345021,587.618554 202.022838,587.619686 201.206985,589.14264 L196.33206,598.242462 C195.515594,599.766533 196.25668,601 197.985973,601 L207.382484,601 C209.11025,601.000016 209.85225,599.765416 209.036397,598.242462 Z M203.336418,591.548743 L203.214094,596.783643 L202.148764,596.783643 L202.031519,591.548743 L203.336418,591.548743 Z M203.203887,598.853141 C203.081547,598.978878 202.908251,599.041739 202.683969,599.041739 C202.459686,599.041739 202.286375,598.978878 202.16405,598.853141 C202.04171,598.727404 201.980548,598.571093 201.980548,598.384194 C201.980548,598.289045 201.9967,598.200691 202.028971,598.119131 C202.061243,598.037571 202.107134,597.966218 202.166598,597.90504 C202.226062,597.843877 202.299129,597.796303 202.385785,597.762317 C202.472441,597.728331 202.571835,597.711346 202.683984,597.711346 C202.796134,597.711346 202.895528,597.728331 202.982184,597.762317 C203.068839,597.796303 203.141891,597.843877 203.201371,597.90504 C203.260835,597.966202 203.30671,598.037571 203.338998,598.119131 C203.371285,598.200691 203.387421,598.289045 203.387421,598.384194 C203.38739,598.571093 203.326227,598.727404 203.203887,598.853141 Z" id="Shape"></path>
        </g>
    </g>
</svg>