<?xml version="1.0" encoding="UTF-8" standalone="no"?>
<svg width="25px" height="22px" viewBox="0 0 25 22" version="1.1" xmlns="http://www.w3.org/2000/svg" xmlns:xlink="http://www.w3.org/1999/xlink">
    <!-- Generator: Sketch 40.2 (33826) - http://www.bohemiancoding.com/sketch -->
    <title>Group 23</title>
    <desc>Created with Sketch.</desc>
    <defs></defs>
    <g id="Page-1" stroke="none" stroke-width="1" fill="none" fill-rule="evenodd">
        <g id="住院审核－详情2（住院信息汇总）" transform="translate(-545.000000, -1162.000000)" fill="#A7B1B4">
            <g id="Group-23" transform="translate(545.000000, 1162.000000)">
                <g id="手术刀_scalpel">
                    <path d="M23.457558,2.26369543 C23.9476192,1.71254777 23.9184763,0.886944991 23.3870014,0.371595831 C22.8923387,-0.109446439 22.0909084,-0.109446439 21.5970126,0.370850029 L6.02012197,15.5195796 L5.08908237,16.4264748 C7.2602299,16.20348 9.42754283,15.9260417 11.5879535,15.6150423 L23.457558,2.26369543 L23.457558,2.26369543 Z" id="Shape"></path>
                    <path d="M3.87888428,17.6011129 L0.131718328,21.2443555 C0.00671054075,21.3666671 -0.0262669738,21.5531175 0.0481241636,21.7089902 C0.118680706,21.8566589 0.2682299,21.9483926 0.433884392,21.9483926 C0.444621257,21.9483926 0.45689196,21.9483926 0.467628825,21.9476468 C0.585734342,21.9379514 0.712275968,21.9282559 0.846486783,21.9155773 C0.886366568,21.9267643 0.92854711,21.9327307 0.97226149,21.9327307 L2.35961786,21.9327307 C2.55748294,21.9327307 2.72620511,21.8119108 2.7906263,21.6426138 C3.47701876,21.5158274 4.21709554,21.3428014 4.96560842,21.110857 C4.84213447,21.1921494 4.76160799,21.3286312 4.76160799,21.4830122 C4.76160799,21.7313642 4.97020994,21.9334765 5.22482703,21.9334765 L8.09080312,21.9334765 C8.34618712,21.9334765 8.55402216,21.739568 8.55402216,21.4904702 C8.55402216,21.2421181 8.34618712,21.0474638 8.09080312,21.0474638 L5.22482703,21.0474638 C5.21869167,21.0474638 5.21102249,21.0414974 5.20565405,21.0414974 C7.00791357,20.4508222 8.83164681,19.4969415 10.0349426,17.9665559 L10.9061626,16.8299537 C10.9053956,16.8299537 3.98778677,17.5914175 3.87888428,17.6011129 L3.87888428,17.6011129 Z M1.79976703,20.8953202 L4.30759197,18.4580394 C5.11592454,18.3648141 7.20577866,18.1194453 8.84851903,17.9277742 C6.97186838,19.8318066 3.8796512,20.5932704 1.79976703,20.8953202 L1.79976703,20.8953202 Z" id="Shape"></path>
                    <path d="M19.5531736,21.0474638 L16.6871975,21.0474638 C16.4333474,21.0474638 16.2262793,21.2421181 16.2262793,21.4904702 C16.2262793,21.7388222 16.4333474,21.9334765 16.6871975,21.9334765 L19.5531736,21.9334765 C19.8085576,21.9334765 20.0163927,21.739568 20.0163927,21.4904702 C20.0163927,21.2421181 19.8085576,21.0474638 19.5531736,21.0474638 L19.5531736,21.0474638 Z" id="Shape"></path>
                    <path d="M13.8227553,21.0474638 L10.9567792,21.0474638 C10.7021621,21.0474638 10.4943271,21.2421181 10.4943271,21.4904702 C10.4943271,21.7388222 10.7021621,21.9334765 10.9567792,21.9334765 L13.8227553,21.9334765 C14.0773724,21.9334765 14.2844405,21.739568 14.2844405,21.4904702 C14.2836736,21.2421181 14.0773724,21.0474638 13.8227553,21.0474638 L13.8227553,21.0474638 Z" id="Shape"></path>
                    <path d="M23.8065061,21.0474638 L22.4191497,21.0474638 C22.1637657,21.0474638 21.9566976,21.2421181 21.9566976,21.4904702 C21.9566976,21.7388222 22.1637657,21.9334765 22.4191497,21.9334765 L23.8065061,21.9334765 C24.0618901,21.9334765 24.2697251,21.739568 24.2697251,21.4904702 C24.2697251,21.2421181 24.0618901,21.0474638 23.8065061,21.0474638 L23.8065061,21.0474638 Z" id="Shape"></path>
                </g>
                <g id="Group-10" transform="translate(14.000000, 13.000000)">
                    <path d="M1.42390188,0.368074438 C0.87249109,0.368074438 0.425698252,0.804962219 0.425698252,1.34414866 L0.425698252,2.29636706 C0.425698252,2.8355535 0.87249109,3.27244128 1.42390188,3.27244128 C1.97531268,3.27244128 2.42207282,2.8355535 2.42207282,2.29636706 L2.42207282,1.34414866 C2.42210552,0.80496225 1.97531268,0.368074438 1.42390188,0.368074438 L1.42390188,0.368074438 Z" id="Shape"></path>
                    <path d="M9.21478264,0.368074438 C8.66337185,0.368074438 8.21657901,0.804962219 8.21657901,1.34414866 L8.21657901,2.29636706 C8.21657901,2.8355535 8.66337185,3.27244128 9.21478264,3.27244128 C9.76619343,3.27244128 10.2129536,2.8355535 10.2129536,2.29636706 L10.2129536,1.34414866 C10.2129536,0.80496225 9.76619343,0.368074438 9.21478264,0.368074438 L9.21478264,0.368074438 Z" id="Shape"></path>
                    <path d="M7.78093799,4.46296212 C7.3237782,4.16936919 6.70735319,4.2942445 6.40160978,4.73685644 C6.39739106,4.74290034 5.96652471,5.35419787 5.3095149,5.35419787 C4.67068813,5.35419787 4.27330999,4.78862934 4.24632974,4.74891225 C3.95356956,4.29804994 3.34303114,4.16111878 2.8774012,4.44358325 C2.40918767,4.72825425 2.26522762,5.33005422 2.5560583,5.78788781 C2.91445407,6.35185744 3.89738525,7.30631431 5.30951487,7.30631431 C6.71451518,7.30631431 7.7097755,6.35886069 8.07631439,5.79933603 C8.37103681,5.34940109 8.23714941,4.75684287 7.78093799,4.46296212 L7.78093799,4.46296212 Z" id="Shape"></path>
                </g>
            </g>
        </g>
    </g>
</svg>