<?xml version="1.0" encoding="UTF-8" standalone="no"?>
<svg width="14px" height="14px" viewBox="0 0 14 14" version="1.1" xmlns="http://www.w3.org/2000/svg" xmlns:xlink="http://www.w3.org/1999/xlink">
    <!-- Generator: Sketch 40.2 (33826) - http://www.bohemiancoding.com/sketch -->
    <title>Shape</title>
    <desc>Created with Sketch.</desc>
    <defs></defs>
    <g id="Page-1" stroke="none" stroke-width="1" fill="none" fill-rule="evenodd">
        <g id="审方系统－审方方案列表（提示）" transform="translate(-684.000000, -253.000000)" fill="#FE5D5C">
            <g id="Group-24" transform="translate(676.000000, 240.000000)">
                <path d="M14.9999859,27.0000141 C11.1338892,27.0000141 8,23.8661249 8,20.0000141 C8,16.1339033 11.1338892,13 14.9999859,13 C18.8655877,13 22,16.1339033 22,20.0000141 C22,23.8661249 18.8655877,27.0000141 14.9999859,27.0000141 L14.9999859,27.0000141 Z M15.5600356,15.8219806 C15.414205,15.6660264 15.2278657,15.5880351 15.0010039,15.5880351 C14.7741562,15.5880351 14.5878311,15.6670444 14.4419721,15.8250206 C14.2961556,15.9829967 14.2232261,16.1774518 14.2232261,16.4083574 C14.2232261,16.6109 14.2890578,17.2914574 14.4207069,18.4500152 C14.5523702,19.6085731 14.6627683,20.7286585 14.751873,21.8102573 L15.2258297,21.8102573 C15.327094,20.7286585 15.4445758,19.6085731 15.578261,18.4500152 C15.711932,17.2914574 15.7787958,16.6108859 15.7787958,16.4083574 C15.7787958,16.173408 15.7058663,15.9779491 15.5600356,15.8219806 L15.5600356,15.8219806 Z M15.5529378,23.0711257 C15.3985106,22.9166843 15.2146881,22.8392021 15.0010039,22.8392021 C14.7873196,22.8392021 14.6035255,22.9166843 14.44907,23.0711257 C14.2946286,23.2255671 14.2176553,23.4093613 14.2176553,23.6230738 C14.2176553,23.8367439 14.2946286,24.0185303 14.44907,24.1689138 C14.6035255,24.3198345 14.7873196,24.3947576 15.0010039,24.3947576 C15.2146881,24.3947576 15.3985105,24.3198345 15.5529378,24.1689138 C15.7073933,24.0185162 15.7848473,23.8367439 15.7848473,23.6230738 C15.7848615,23.4093613 15.7073933,23.2255671 15.5529378,23.0711257 L15.5529378,23.0711257 Z" id="Shape"></path>
            </g>
        </g>
    </g>
</svg>